<?xml version="1.0" encoding="UTF-8"?>
<svg xmlns="http://www.w3.org/2000/svg" viewBox="0 0 53.16 53.16">
  <defs>
    <linearGradient id="grad" x1="0" y1="26.58" x2="53.16" y2="26.58" gradientUnits="userSpaceOnUse">
      <stop offset="0" stop-color="#e9464e"/>
      <stop offset="1" stop-color="#e6007e"/>
    </linearGradient>
  </defs>
  <circle fill="url(#grad)" cx="26.58" cy="26.58" r="26.58"/>
  <path fill="#e9464e" d="M36.11,26.27s-.02.1-.01.16c.03.25.06.5.08.75-.04-.1-.09-.2-.15-.29-.03-.05-.08-.06-.12-.06-.25-1.74-.55-3.48-.66-5.25.36,1.55.6,3.12.86,4.68ZM34.77,22.97c-.65-4.82-.77-9.67-.68-14.53,0-.11.01-.22.03-.45.11.49.05.87.06,1.25,0,.4.01.79.02,1.19.03,5.25.47,10.45,1.43,15.62.06.3.12.6.18.9,0,.03,0,.06.02.09,0,0,0,0,0,.01,0,0,0,.02,0,.02h0c.28.47.33,1.05.33,1.61-.22-.55-.47-1.07-.71-1.68-.3-1.33-.49-2.67-.67-4.02Z"/>
  <path fill="#fff" d="M42.38,47.99s.02-.01.03-.02c.08-.07.17-.14.24-.23.04-.05.09-.07.14-.09-1.36-1.76-2.48-3.69-3.25-5.89-.66-1.9-1.06-3.88-1.73-5.78.01-.06.01-.12,0-.19-.2-.75-.36-1.51-.48-2.28,0-.02,0-.05,0-.07,0-.03-.01-.05-.02-.08-.11-.77-.26-1.51-.22-2.29.02-.31.06-.62.1-.92.03-.32.08-.63.13-.95.02-.14.03-.28.04-.43.01-.24.02-.48.02-.72-.03-.64-.16-1.27-.27-1.91-.12-1.19-.33-2.37-.53-3.55-.05-.11-.07-.25-.07-.4,0,0,0-.01,0-.02-.14-.43-.24-.86-.29-1.3-.01-.01-.03-.02-.04-.03-.07-1.16-.13-2.31-.2-3.47-.09-1.61-.09-3.23-.26-4.84-.18-1.75-.62-3.46-.76-5.21.01-.05.01-.11,0-.18.09-.09.15-.22.12-.37-.04-.28-.1-.54-.19-.79-.16-.67-.35-1.32-.65-1.95-.04-.09-.11-.15-.19-.18-.09-.06-.19-.1-.29-.09-.14-.12-.35-.16-.49-.08-.01-.12-.03-.24-.05-.36-.07-.4-.66-.36-.77,0-.2.69-.35,1.38-.6,2.05,0,0,0,.02,0,.02-.2.03-.28.19-.47.61-.21.47-.52.92-.52,1.46,0,.46-.1.87-.26,1.29-.46,1.19-1.11,2.32-1.33,3.6-.1.56-.33,1.02-.67,1.44-.48.59-.96,1.18-1.44,1.77-.16.2-.27.41-.04.63.29.27.23.52,0,.82-.35.47-.68.99-.67,1.59,0,.76-.09,1.47-.43,2.16-.14.28-.2.6-.27.91-.75,3.43-1.35,5.27-2.45,7.48-.07-.17-.13-.33-.19-.5-.58-1.77-1.3-3.51-1.39-5.41-.02-.41.05-.84-.05-1.22-.14-.53-.33-1.06-.51-1.58-.18-.49-.13-1-.23-1.5-.12-.62-.33-.91-.94-.94-.17,0-.35-.05-.51-.11-.47-.19-.73-.02-1.03.39-.27.37-.5.77-.77,1.15-.84,1.17-1.64,2.37-2.28,3.67-.74,1.5-1.68,2.86-2.7,4.16-.1.08-.19.19-.27.31-.04.06-.08.12-.13.19-.05.06-.1.12-.15.18,0,.01,0,.02,0,.04-1.26,1.89-2.67,3.67-3.97,5.53-.05.05-.11.1-.15.16-1.29,1.84-2.12,3.88-2.54,6.09-.01.08-.05.19-.01.23.29.33.16.7.06,1.04-.09.34.02.53.29.71.48.3.84.71,1.09,1.23.12.25.26.51.49.7.27.23.51.29.74-.07.34-.55.69-1.1,1.06-1.64.45-.65.46-.64.81.06.01.02.05.03.07.05q.31-.54.83-.51s.06-.02.07-.04c.19-.47.29.04.44.04.51-.84,1.03-1.67,1.54-2.51,1.33-2.15,2.55-4.35,3.02-6.87.09-.48.28-.91.59-1.28.27-.32.23-.62-.05-.88-.25-.23-.22-.41-.04-.69,1.01-1.57,2.2-3.04,2.71-4.88.14.06.12.21.15.32.24.84.46,1.68.69,2.52.54,1.94,1.13,3.86,2.09,5.64.11.2.21.3.46.29.67-.03,1.33-.03,2-.02.26,0,.4-.09.52-.32.47-.95.97-1.89,1.42-2.85,1.9-4.03,3.25-8.27,4.57-12.52.36-1.15.72-2.31,1.12-3.6.05.25.08.36.09.46.23,2.77.56,5.52.98,8.26.27,1.81.56,3.61.95,5.4.23,1.44.72,2.8.96,4.23.03.17.06.36.08.55.13.32.24.65.29.99.08.2.14.4.2.6.01.02.03.04.04.06.08.25.16.51.23.76.1.31.19.62.29.93.05.38.15.76.35,1.14.01.02.03.04.05.06,1.2,3.48,2.74,6.8,4.85,9.85.2.28.4.56.6.83.05-.05.1-.08.16-.1Z"/>
</svg>
