<?xml version="1.0" encoding="UTF-8"?>
<svg id="Livello_2" data-name="Livello 2" xmlns="http://www.w3.org/2000/svg" viewBox="0 0 283.19 75.92">
  <defs>
    <style>
      .cls-1 {
        fill: #fff;
      }
    </style>
  </defs>
  <g id="Livello_1-2" data-name="Livello 1">
    <g>
      <path class="cls-1" d="M83.68,57.1h1.39v-21.45h-1.39v21.45ZM83.68,20.05v10.65h1.39v-10.65h-1.39Z"/>
      <path class="cls-1" d="M105.81,34.43v22.67h1.39v-22.67h-1.39ZM123.71,57.1h1.38v-13.94h-1.38v13.94ZM122.25,22.91c-1.9-1.9-4.16-2.86-6.8-2.86-2.03,0-3.86.55-5.48,1.65-1.62,1.1-2.77,2.56-3.47,4.39-.74-1.78-1.9-3.23-3.5-4.35s-3.39-1.69-5.38-1.69c-3.6,0-6.33,1.55-8.18,4.65v-4.65h-1.39v27.5h1.39v-17.89c0-2.28.8-4.21,2.39-5.82,1.6-1.6,3.53-2.4,5.79-2.4s4.2.8,5.8,2.4c1.55,1.57,2.35,3.44,2.38,5.64h1.41c.03-2.2.82-4.07,2.38-5.64,1.6-1.6,3.55-2.4,5.86-2.4s4.21.81,5.83,2.44c1.62,1.62,2.43,3.57,2.43,5.85v8.48h1.38v-8.48c0-2.64-.94-4.92-2.84-6.82ZM88.05,52.51v4.59h1.39v-4.59h-1.39Z"/>
      <path class="cls-1" d="M163.59,20.05v11.52c-1.39-3.44-3.63-6.22-6.73-8.34-3.1-2.12-6.54-3.18-10.33-3.18-1.15,0-2.27.09-3.34.28l.45,1.33c.93-.15,1.89-.22,2.89-.22,4.71,0,8.74,1.67,12.07,5.01,3.33,3.33,4.99,7.36,4.99,12.09s-1.66,8.83-4.99,12.16c-3.33,3.34-7.36,5.01-12.07,5.01s-8.81-1.67-12.14-5.01c-3.33-3.33-5-7.39-5-12.16s1.67-8.76,5-12.09c1.34-1.34,2.79-2.41,4.35-3.21l-.44-1.33c-1.76.88-3.39,2.07-4.88,3.57-3.61,3.61-5.41,7.96-5.41,13.06s1.8,9.52,5.41,13.14c3.6,3.61,7.97,5.42,13.11,5.42,3.79,0,7.23-1.06,10.33-3.16,3.1-2.1,5.34-4.87,6.73-8.29v11.45h1.39V20.05h-1.39Z"/>
      <path class="cls-1" d="M207.92,57.1h1.38v-21.91h-1.38v21.91ZM207.92,20.05v6.16h1.38v-6.16h-1.38Z"/>
      <path class="cls-1" d="M212.28,51.11v5.99h1.39v-5.99h-1.39ZM241.84,43.06v14.04h1.38v-14.04h-1.38ZM238.68,24.61c-3.03-3.04-6.67-4.56-10.93-4.56-3.1,0-5.9.84-8.42,2.52-2.53,1.68-4.41,3.89-5.66,6.64v-9.16h-1.39v25.19h1.39v-9.66c0-3.9,1.38-7.23,4.13-9.99,2.75-2.77,6.07-4.15,9.95-4.15s7.21,1.38,9.96,4.15c2.39,2.4,3.75,5.24,4.06,8.5h1.39c-.32-3.64-1.81-6.79-4.48-9.48Z"/>
      <path class="cls-1" d="M281.79,20.05v11.52c-1.39-3.44-3.63-6.22-6.73-8.34-.07-.04-.13-.09-.2-.13l-.55,1.26c.87.6,1.7,1.29,2.49,2.09,3.33,3.33,4.99,7.36,4.99,12.09s-1.66,8.83-4.99,12.16c-3.33,3.34-7.36,5.01-12.07,5.01-1.38,0-2.7-.14-3.95-.42l-.57,1.29c1.43.35,2.94.52,4.52.52,3.79,0,7.23-1.06,10.33-3.16,3.1-2.1,5.34-4.87,6.73-8.29v11.45h1.39V20.05h-1.39ZM247.59,38.54c0-4.73,1.67-8.76,5-12.09,3.33-3.34,7.37-5.01,12.14-5.01,1.74,0,3.39.23,4.95.68l.55-1.25c-1.74-.55-3.58-.82-5.5-.82-5.14,0-9.51,1.81-13.11,5.43-3.61,3.61-5.41,7.96-5.41,13.06s1.8,9.52,5.41,13.14c1.19,1.19,2.46,2.19,3.81,2.98l.57-1.28c-1.21-.72-2.34-1.61-3.41-2.68-3.33-3.33-5-7.39-5-12.16Z"/>
      <path class="cls-1" d="M205.01,38.57c0,5.13-1.81,9.5-5.41,13.11-3.6,3.6-7.98,5.41-13.11,5.41s-9.5-1.8-13.11-5.41-5.41-7.98-5.41-13.11,1.8-9.5,5.41-13.11c3.6-3.61,7.98-5.41,13.11-5.41s9.44,1.78,13.03,5.34c-.44.21-.87.46-1.28.75-3.28-3.12-7.19-4.71-11.74-4.71s-8.75,1.68-12.11,5.03c-3.36,3.35-5.03,7.38-5.03,12.11s1.67,8.75,5.03,12.11c3.36,3.35,7.39,5.03,12.11,5.03s8.75-1.68,12.11-5.03c3.31-3.32,4.98-7.29,5.02-11.94h-10.42v-1.07h11.74v.04h.04c.01.29.04.56.04.85Z"/>
      <g>
        <path class="cls-1" d="M50.83,38.39h-.01s0-.02-.01-.03h0c-.03-.06-.04-.11-.03-.15-.08-.42-.17-.84-.25-1.27-1.36-7.32-1.99-14.71-2.02-22.16-.01-.56-.01-1.12-.03-1.69,0-.53.09-1.06-.08-1.76-.02.33-.03.48-.04.64-.12,6.89.06,13.78.97,20.62.26,1.91.53,3.82.96,5.71.33.86.69,1.6,1,2.38,0-.8-.06-1.62-.46-2.29ZM51.22,37.5c-.01-.08,0-.16.02-.22-.36-2.23-.71-4.45-1.22-6.65.15,2.5.58,4.97.94,7.44.06,0,.13.02.17.09.08.13.15.27.21.41-.04-.35-.08-.71-.12-1.07Z"/>
        <path class="cls-1" d="M48.48,13.09c.02.57.02,1.13.03,1.69.03,7.45.66,14.84,2.02,22.16.08.43.17.85.25,1.27-.01.04,0,.09.03.14h0s.01.03.01.05h.01c.4.66.46,1.48.46,2.28-.31-.78-.67-1.52-1-2.38-.43-1.89-.7-3.8-.96-5.71-.91-6.84-1.09-13.73-.97-20.62.01-.16.02-.31.04-.64.17.7.07,1.23.08,1.76Z"/>
        <path class="cls-1" d="M51.34,38.57c-.06-.14-.13-.28-.21-.41-.04-.07-.11-.09-.17-.09-.36-2.47-.79-4.94-.94-7.44.51,2.2.86,4.42,1.22,6.65-.02.06-.03.14-.02.22.04.36.08.72.12,1.07Z"/>
        <path class="cls-1" d="M75.43,37.72c0,12.18-5.77,23.01-14.73,29.9-1.92-2.49-3.51-5.23-4.6-8.35-.94-2.7-1.5-5.51-2.45-8.2.01-.08.01-.17-.01-.26-.28-1.07-.52-2.15-.68-3.24v-.1s-.02-.07-.02-.11c-.15-1.1-.37-2.14-.31-3.25.02-.44.08-.88.14-1.32.04-.44.11-.89.19-1.34.03-.2.05-.41.06-.61.02-.34.03-.67.03-1.01-.04-.91-.23-1.8-.39-2.71-.17-1.69-.46-3.36-.74-5.03-.07-.16-.1-.35-.11-.56v-.03c-.19-.61-.33-1.22-.4-1.84-.02-.02-.04-.03-.06-.04-.1-1.65-.19-3.29-.28-4.93-.13-2.29-.13-4.59-.36-6.88-.26-2.48-.89-4.91-1.08-7.39.02-.08.01-.16-.01-.25.13-.13.21-.31.17-.53-.06-.4-.14-.77-.26-1.13-.23-.94-.5-1.87-.92-2.76-.06-.13-.16-.21-.27-.25-.12-.09-.27-.14-.41-.13-.19-.17-.49-.23-.7-.11-.02-.17-.04-.34-.07-.5-.1-.57-.94-.51-1.08,0-.28.97-.49,1.96-.85,2.91,0,0,0,.02,0,.03-.28.04-.39.27-.66.86-.3.68-.74,1.31-.74,2.08.01.65-.14,1.24-.37,1.83-.65,1.7-1.56,3.3-1.88,5.11-.14.79-.48,1.44-.96,2.04-.68.85-1.37,1.68-2.05,2.52-.22.28-.38.57-.05.89.4.38.33.73.01,1.16-.49.67-.96,1.42-.95,2.27.01,1.08-.13,2.09-.6,3.07-.2.39-.29.85-.38,1.28-1.07,4.88-1.91,7.48-3.47,10.62-.1-.25-.19-.47-.27-.71-.82-2.51-1.84-4.98-1.97-7.67-.03-.58.06-1.19-.08-1.74-.19-.76-.46-1.5-.72-2.24-.25-.69-.19-1.42-.32-2.12-.17-.88-.47-1.3-1.34-1.34-.24-.01-.5-.07-.72-.16-.67-.27-1.04-.03-1.46.55-.39.53-.71,1.1-1.1,1.63-1.19,1.66-2.33,3.36-3.24,5.21-1.05,2.12-2.38,4.05-3.83,5.9-.14.12-.27.27-.39.44-.06.09-.12.18-.18.27-.07.08-.13.17-.2.26v.05c-1.8,2.68-3.8,5.2-5.64,7.85-.07.07-.15.15-.21.23-1.83,2.61-3.01,5.51-3.61,8.64-.02.1-.06.26-.01.32.41.47.22,1,.09,1.48-.13.48.02.75.42,1,.68.42,1.19,1,1.54,1.74.17.36.37.72.69.99.38.33.73.42,1.05-.1.48-.78.98-1.56,1.5-2.32.64-.92.65-.91,1.14.08.02.03.07.05.11.07.44-.77.44-.76,1.17-.72.03,0,.09-.02.1-.05.27-.66.41.05.62.05.73-1.18,1.46-2.37,2.19-3.56,1.88-3.05,3.63-6.16,4.29-9.75.12-.68.39-1.29.83-1.81.39-.46.33-.88-.07-1.24-.36-.34-.32-.59-.06-.98,1.43-2.22,3.11-4.31,3.85-6.93.2.09.17.31.22.46.33,1.19.65,2.38.98,3.57.77,2.76,1.61,5.48,2.96,8.01.16.29.31.43.66.42.94-.04,1.89-.04,2.84-.03.36.01.57-.12.73-.45.66-1.35,1.37-2.68,2.01-4.04,2.7-5.73,4.62-11.74,6.49-17.77.51-1.63,1.02-3.27,1.59-5.1.07.35.12.5.13.65.33,3.93.79,7.84,1.38,11.73.39,2.56.8,5.12,1.35,7.66.33,2.04,1.02,3.97,1.37,6,.04.24.08.51.12.78.18.46.34.92.4,1.4.11.28.21.57.28.86.02.03.04.05.06.08.11.36.22.72.33,1.08.14.44.28.88.42,1.32.06.54.21,1.08.5,1.61.02.04.04.06.07.09,1.7,4.93,3.88,9.65,6.87,13.98.28.4.56.79.84,1.17-6.23,4.53-13.9,7.2-22.18,7.2C16.88,75.43,0,58.55,0,37.72S16.88,0,37.71,0s37.72,16.89,37.72,37.72Z"/>
        <path class="cls-1" d="M60.7,67.62s-.04.03-.06.05c.02-.02.05-.03.07-.04h-.01ZM59.91,68.25c.07-.07.15-.12.23-.15.01-.01.02-.01.03-.02.12-.1.24-.2.35-.32-.21.16-.42.31-.63.47.01,0,.02,0,.02.02Z"/>
      </g>
      <g>
        <path class="cls-1" d="M174.73,73.54c0,1.38-1.21,2.39-3.01,2.39-1.68,0-2.79-.79-3.19-1.87l.72-.42c.3.91,1.21,1.48,2.47,1.48,1.18,0,2.17-.52,2.17-1.58,0-2.29-5.09-.97-5.09-4,0-1.33,1.14-2.39,2.86-2.39,1.36,0,2.4.66,2.86,1.68l-.71.4c-.35-.87-1.23-1.28-2.15-1.28-1.09,0-2.02.57-2.02,1.58,0,2.25,5.09.92,5.09,4Z"/>
        <path class="cls-1" d="M175.94,71.54c0-2.49,1.97-4.39,4.42-4.39s4.41,1.9,4.41,4.39-1.97,4.39-4.41,4.39-4.42-1.9-4.42-4.39ZM183.91,71.54c0-2-1.55-3.58-3.55-3.58s-3.56,1.58-3.56,3.58,1.56,3.58,3.56,3.58,3.55-1.58,3.55-3.58Z"/>
        <path class="cls-1" d="M186.21,71.54c0-2.49,1.88-4.39,4.42-4.39,1.65,0,3.06.84,3.67,2.15l-.69.4c-.49-1.06-1.63-1.75-2.98-1.75-2.04,0-3.56,1.58-3.56,3.58s1.53,3.58,3.56,3.58c1.36,0,2.47-.71,3.03-1.75l.71.42c-.67,1.29-2.09,2.13-3.73,2.13-2.54,0-4.42-1.9-4.42-4.39Z"/>
        <path class="cls-1" d="M195.96,64.62c0-.35.3-.66.67-.66s.67.3.67.66c0,.37-.3.67-.67.67s-.67-.3-.67-.67ZM196.22,67.33h.84v8.41h-.84v-8.41Z"/>
        <path class="cls-1" d="M207.58,71.57c0,.13-.02.27-.02.4h-7.62c.2,1.9,1.65,3.14,3.56,3.14,1.38,0,2.42-.64,2.91-1.53l.74.44c-.69,1.14-2,1.9-3.67,1.9-2.59,0-4.42-1.85-4.42-4.39s1.78-4.39,4.36-4.39,4.15,2.12,4.15,4.42ZM199.95,71.15h6.76c-.19-2.05-1.63-3.19-3.28-3.19-1.92,0-3.31,1.33-3.48,3.19Z"/>
        <path class="cls-1" d="M211.09,68.16v5.46c0,1.48.79,1.51,2.51,1.36v.76c-2.2.34-3.36-.2-3.36-2.12v-5.46h-1.85v-.82h1.85v-2.1l.86-.25v2.35h2.51v.82h-2.51Z"/>
        <path class="cls-1" d="M223.37,67.33v8.41h-.86v-1.9c-.71,1.26-2,2.08-3.62,2.08-2.39,0-4.36-1.9-4.36-4.39s1.97-4.39,4.36-4.39c1.61,0,2.91.82,3.62,2.08v-1.9h.86ZM222.51,71.54c0-2-1.55-3.58-3.55-3.58s-3.56,1.58-3.56,3.58,1.56,3.58,3.56,3.58,3.55-1.58,3.55-3.58ZM218.98,66.15l-1.55-2.13h1.01l1.35,2.13h-.81Z"/>
        <path class="cls-1" d="M239.25,71.54c0,2.49-1.95,4.39-4.35,4.39-1.63,0-2.93-.84-3.62-2.13v1.95h-.84v-11.77h.84v5.31c.69-1.29,1.98-2.14,3.62-2.14,2.4,0,4.35,1.9,4.35,4.39ZM238.41,71.54c0-2-1.56-3.58-3.57-3.58s-3.56,1.58-3.56,3.58,1.56,3.58,3.56,3.58,3.57-1.58,3.57-3.58Z"/>
        <path class="cls-1" d="M249.22,71.57c0,.13-.02.27-.02.4h-7.62c.2,1.9,1.65,3.14,3.56,3.14,1.38,0,2.42-.64,2.91-1.53l.74.44c-.69,1.14-2,1.9-3.67,1.9-2.59,0-4.42-1.85-4.42-4.39s1.78-4.39,4.36-4.39,4.15,2.12,4.15,4.42ZM241.58,71.15h6.76c-.19-2.05-1.63-3.19-3.28-3.19-1.92,0-3.31,1.33-3.48,3.19Z"/>
        <path class="cls-1" d="M258.29,70.51v5.23h-.86v-5.23c0-1.55-.89-2.56-2.47-2.56s-2.94,1.08-2.94,3.35v4.44h-.84v-8.41h.84v1.6c.64-1.24,1.71-1.78,3.01-1.78,2,0,3.26,1.33,3.26,3.36Z"/>
        <path class="cls-1" d="M268.6,71.57c0,.13-.02.27-.02.4h-7.62c.2,1.9,1.65,3.14,3.56,3.14,1.38,0,2.42-.64,2.91-1.53l.74.44c-.69,1.14-2,1.9-3.67,1.9-2.59,0-4.42-1.85-4.42-4.39s1.78-4.39,4.36-4.39,4.15,2.12,4.15,4.42ZM260.96,71.15h6.76c-.19-2.05-1.63-3.19-3.28-3.19-1.92,0-3.31,1.33-3.48,3.19Z"/>
        <path class="cls-1" d="M276.31,75.74h-.86v-7.58h-3.68v7.58h-.86v-7.58h-1.45v-.82h1.45v-.45c0-2.07,1.16-3.09,3.36-3.09.56,0,1.08.07,1.63.19v.77c-.56-.1-1.08-.15-1.63-.15-1.71,0-2.5.66-2.5,2.29v.45h4.54v8.41Z"/>
        <path class="cls-1" d="M280.68,68.16v5.46c0,1.48.79,1.51,2.51,1.36v.76c-2.2.34-3.36-.2-3.36-2.12v-5.46h-1.85v-.82h1.85v-2.1l.86-.25v2.35h2.51v.82h-2.51Z"/>
      </g>
    </g>
  </g>
</svg>