<?xml version="1.0" encoding="UTF-8"?>
<svg id="Livello_2" data-name="Livello 2" xmlns="http://www.w3.org/2000/svg" xmlns:xlink="http://www.w3.org/1999/xlink" viewBox="0 0 199.58 53.51">
  <defs>
    <style>
      .cls-1 {
        fill: #fff;
      }

      .cls-2 {
        fill: url(#Sfumatura_senza_nome_13);
      }

      .cls-3 {
        fill: #e9464e;
      }
    </style>
    <linearGradient id="Sfumatura_senza_nome_13" data-name="Sfumatura senza nome 13" x1="0" y1="26.58" x2="53.16" y2="26.58" gradientUnits="userSpaceOnUse">
      <stop offset="0" stop-color="#e9464e"/>
      <stop offset="1" stop-color="#e6007e"/>
    </linearGradient>
  </defs>
  <g id="Livello_1-2" data-name="Livello 1">
    <path d="M58.97,40.24h.98v-15.12h-.98v15.12ZM58.97,14.13v7.51h.98v-7.51h-.98Z"/>
    <path d="M74.57,24.26v15.98h.98v-15.98h-.98ZM87.18,40.24h.97v-9.82h-.97v9.82ZM86.16,16.14c-1.34-1.34-2.93-2.02-4.79-2.02-1.43,0-2.72.39-3.86,1.16-1.14.78-1.95,1.8-2.45,3.09-.52-1.25-1.34-2.28-2.47-3.07s-2.39-1.19-3.79-1.19c-2.54,0-4.46,1.09-5.76,3.28v-3.28h-.98v19.38h.98v-12.61c0-1.61.56-2.97,1.68-4.1,1.13-1.13,2.49-1.69,4.08-1.69s2.96.56,4.09,1.69c1.09,1.11,1.66,2.42,1.68,3.97h.99c.02-1.55.58-2.87,1.68-3.97,1.13-1.13,2.5-1.69,4.13-1.69s2.97.57,4.11,1.72c1.14,1.14,1.71,2.52,1.71,4.12v5.98h.97v-5.98c0-1.86-.66-3.47-2-4.81ZM62.05,37v3.23h.98v-3.23h-.98Z"/>
    <path d="M115.29,14.13v8.12c-.98-2.42-2.56-4.38-4.74-5.88-2.18-1.49-4.61-2.24-7.28-2.24-.81,0-1.6.06-2.35.2l.32.94c.66-.11,1.33-.16,2.04-.16,3.32,0,6.16,1.18,8.51,3.53,2.35,2.35,3.52,5.19,3.52,8.52s-1.17,6.22-3.52,8.57c-2.35,2.35-5.19,3.53-8.51,3.53s-6.21-1.18-8.56-3.53c-2.35-2.35-3.52-5.21-3.52-8.57s1.18-6.17,3.52-8.52c.94-.94,1.97-1.7,3.07-2.26l-.31-.94c-1.24.62-2.39,1.46-3.44,2.52-2.54,2.54-3.81,5.61-3.81,9.2s1.27,6.71,3.81,9.26c2.54,2.54,5.62,3.82,9.24,3.82,2.67,0,5.1-.75,7.28-2.23,2.18-1.48,3.76-3.43,4.74-5.84v8.07h.98V14.13h-.98Z"/>
    <path d="M146.53,40.24h.97v-15.44h-.97v15.44ZM146.53,14.13v4.34h.97v-4.34h-.97Z"/>
    <path d="M149.6,36.01v4.22h.98v-4.22h-.98ZM170.44,30.34v9.89h.97v-9.89h-.97ZM168.21,17.34c-2.14-2.14-4.7-3.21-7.7-3.21-2.18,0-4.16.59-5.93,1.78-1.78,1.18-3.11,2.74-3.99,4.68v-6.46h-.98v17.75h.98v-6.81c0-2.75.97-5.1,2.91-7.04,1.94-1.95,4.28-2.92,7.01-2.92s5.08.97,7.02,2.92c1.68,1.69,2.64,3.69,2.86,5.99h.98c-.23-2.57-1.28-4.79-3.16-6.68Z"/>
    <path d="M198.59,14.13v8.12c-.98-2.42-2.56-4.38-4.74-5.88-.05-.03-.09-.06-.14-.09l-.39.89c.61.42,1.2.91,1.75,1.47,2.35,2.35,3.52,5.19,3.52,8.52s-1.17,6.22-3.52,8.57c-2.35,2.35-5.19,3.53-8.51,3.53-.97,0-1.9-.1-2.78-.3l-.4.91c1.01.25,2.07.37,3.19.37,2.67,0,5.1-.75,7.28-2.23,2.18-1.48,3.76-3.43,4.74-5.84v8.07h.98V14.13h-.98ZM174.49,27.16c0-3.33,1.18-6.17,3.52-8.52,2.35-2.35,5.19-3.53,8.56-3.53,1.23,0,2.39.16,3.49.48l.39-.88c-1.23-.39-2.52-.58-3.88-.58-3.62,0-6.7,1.28-9.24,3.83-2.54,2.54-3.81,5.61-3.81,9.2s1.27,6.71,3.81,9.26c.84.84,1.73,1.54,2.69,2.1l.4-.9c-.85-.51-1.65-1.13-2.4-1.89-2.35-2.35-3.52-5.21-3.52-8.57Z"/>
    <path d="M144.48,27.18c0,3.62-1.27,6.69-3.82,9.24-2.54,2.54-5.62,3.81-9.24,3.81s-6.7-1.27-9.24-3.81-3.82-5.62-3.82-9.24,1.27-6.7,3.82-9.24c2.54-2.54,5.62-3.82,9.24-3.82s6.65,1.26,9.18,3.76c-.31.15-.61.33-.91.53-2.31-2.2-5.07-3.32-8.28-3.32s-6.17,1.18-8.53,3.55c-2.36,2.36-3.54,5.2-3.54,8.53s1.18,6.17,3.54,8.53c2.36,2.36,5.21,3.54,8.53,3.54s6.17-1.18,8.53-3.54c2.33-2.34,3.51-5.14,3.54-8.41h-7.34v-.75h8.27v.03h.03c0,.2.03.4.03.6Z"/>
    <g>
      <path class="cls-3" d="M36.11,26.27s-.02.1-.01.16c.03.25.06.5.08.75-.04-.1-.09-.2-.15-.29-.03-.05-.08-.06-.12-.06-.25-1.74-.55-3.48-.66-5.25.36,1.55.6,3.12.86,4.68ZM34.77,22.97c-.65-4.82-.77-9.67-.68-14.53,0-.11.01-.22.03-.45.11.49.05.87.06,1.25,0,.4.01.79.02,1.19.03,5.25.47,10.45,1.43,15.62.06.3.12.6.18.9,0,.03,0,.06.02.09,0,0,0,0,0,.01,0,0,0,.02,0,.02h0c.28.47.33,1.05.33,1.61-.22-.55-.47-1.07-.71-1.68-.3-1.33-.49-2.67-.67-4.02Z"/>
      <circle class="cls-2" cx="26.58" cy="26.58" r="26.58"/>
      <path class="cls-1" d="M42.38,47.99s.02-.01.03-.02c.08-.07.17-.14.24-.23.04-.05.09-.07.14-.09-1.36-1.76-2.48-3.69-3.25-5.89-.66-1.9-1.06-3.88-1.73-5.78.01-.06.01-.12,0-.19-.2-.75-.36-1.51-.48-2.28,0-.02,0-.05,0-.07,0-.03-.01-.05-.02-.08-.11-.77-.26-1.51-.22-2.29.02-.31.06-.62.1-.92.03-.32.08-.63.13-.95.02-.14.03-.28.04-.43.01-.24.02-.48.02-.72-.03-.64-.16-1.27-.27-1.91-.12-1.19-.33-2.37-.53-3.55-.05-.11-.07-.25-.07-.4,0,0,0-.01,0-.02-.14-.43-.24-.86-.29-1.3-.01-.01-.03-.02-.04-.03-.07-1.16-.13-2.31-.2-3.47-.09-1.61-.09-3.23-.26-4.84-.18-1.75-.62-3.46-.76-5.21.01-.05.01-.11,0-.18.09-.09.15-.22.12-.37-.04-.28-.1-.54-.19-.79-.16-.67-.35-1.32-.65-1.95-.04-.09-.11-.15-.19-.18-.09-.06-.19-.1-.29-.09-.14-.12-.35-.16-.49-.08-.01-.12-.03-.24-.05-.36-.07-.4-.66-.36-.77,0-.2.69-.35,1.38-.6,2.05,0,0,0,.02,0,.02-.2.03-.28.19-.47.61-.21.47-.52.92-.52,1.46,0,.46-.1.87-.26,1.29-.46,1.19-1.11,2.32-1.33,3.6-.1.56-.33,1.02-.67,1.44-.48.59-.96,1.18-1.44,1.77-.16.2-.27.41-.04.63.29.27.23.52,0,.82-.35.47-.68.99-.67,1.59,0,.76-.09,1.47-.43,2.16-.14.28-.2.6-.27.91-.75,3.43-1.35,5.27-2.45,7.48-.07-.17-.13-.33-.19-.5-.58-1.77-1.3-3.51-1.39-5.41-.02-.41.05-.84-.05-1.22-.14-.53-.33-1.06-.51-1.58-.18-.49-.13-1-.23-1.5-.12-.62-.33-.91-.94-.94-.17,0-.35-.05-.51-.11-.47-.19-.73-.02-1.03.39-.27.37-.5.77-.77,1.15-.84,1.17-1.64,2.37-2.28,3.67-.74,1.5-1.68,2.86-2.7,4.16-.1.08-.19.19-.27.31-.04.06-.08.12-.13.19-.05.06-.1.12-.15.18,0,.01,0,.02,0,.04-1.26,1.89-2.67,3.67-3.97,5.53-.05.05-.11.1-.15.16-1.29,1.84-2.12,3.88-2.54,6.09-.01.08-.05.19-.01.23.29.33.16.7.06,1.04-.09.34.02.53.29.71.48.3.84.71,1.09,1.23.12.25.26.51.49.7.27.23.51.29.74-.07.34-.55.69-1.1,1.06-1.64.45-.65.46-.64.81.06.01.02.05.03.07.05q.31-.54.83-.51s.06-.02.07-.04c.19-.47.29.04.44.04.51-.84,1.03-1.67,1.54-2.51,1.33-2.15,2.55-4.35,3.02-6.87.09-.48.28-.91.59-1.28.27-.32.23-.62-.05-.88-.25-.23-.22-.41-.04-.69,1.01-1.57,2.2-3.04,2.71-4.88.14.06.12.21.15.32.24.84.46,1.68.69,2.52.54,1.94,1.13,3.86,2.09,5.64.11.2.21.3.46.29.67-.03,1.33-.03,2-.02.26,0,.4-.09.52-.32.47-.95.97-1.89,1.42-2.85,1.9-4.03,3.25-8.27,4.57-12.52.36-1.15.72-2.31,1.12-3.6.05.25.08.36.09.46.23,2.77.56,5.52.98,8.26.27,1.81.56,3.61.95,5.4.23,1.44.72,2.8.96,4.23.03.17.06.36.08.55.13.32.24.65.29.99.08.2.14.4.2.6.01.02.03.04.04.06.08.25.16.51.23.76.1.31.19.62.29.93.05.38.15.76.35,1.14.01.02.03.04.05.06,1.2,3.48,2.74,6.8,4.85,9.85.2.28.4.56.6.83.05-.05.1-.08.16-.1ZM35.44,26.99c-.3-1.33-.49-2.67-.67-4.02-.65-4.82-.77-9.67-.68-14.53,0-.11.01-.22.03-.45.11.49.05.87.06,1.25,0,.4.01.79.02,1.19.03,5.25.47,10.45,1.43,15.62.06.3.12.6.18.9,0,.03,0,.06.02.09,0,0,0,0,0,.01,0,0,0,.02,0,.02h0c.28.47.33,1.05.33,1.61-.22-.55-.47-1.07-.71-1.68ZM36.04,26.89s-.08-.06-.12-.06c-.25-1.74-.55-3.48-.66-5.25.36,1.55.6,3.12.86,4.68-.01.05-.02.1-.01.16.03.25.06.5.08.75-.04-.1-.09-.2-.15-.29Z"/>
    </g>
    <g>
      <path d="M123.14,51.82c0,.97-.85,1.68-2.12,1.68-1.19,0-1.97-.56-2.25-1.32l.51-.3c.21.64.85,1.04,1.74,1.04.83,0,1.53-.37,1.53-1.11,0-1.61-3.59-.69-3.59-2.82,0-.94.81-1.68,2.01-1.68.96,0,1.69.46,2.01,1.19l-.5.28c-.25-.62-.87-.9-1.52-.9-.77,0-1.42.4-1.42,1.11,0,1.59,3.59.65,3.59,2.82Z"/>
      <path d="M124,50.41c0-1.75,1.39-3.09,3.12-3.09s3.1,1.34,3.1,3.09-1.39,3.09-3.1,3.09-3.12-1.34-3.12-3.09ZM129.61,50.41c0-1.41-1.09-2.52-2.5-2.52s-2.51,1.11-2.51,2.52,1.1,2.52,2.51,2.52,2.5-1.11,2.5-2.52Z"/>
      <path d="M131.23,50.41c0-1.75,1.33-3.09,3.12-3.09,1.16,0,2.16.59,2.58,1.52l-.49.28c-.34-.75-1.15-1.23-2.1-1.23-1.43,0-2.51,1.11-2.51,2.52s1.08,2.52,2.51,2.52c.96,0,1.74-.5,2.13-1.23l.5.3c-.47.91-1.47,1.5-2.63,1.5-1.79,0-3.12-1.34-3.12-3.09Z"/>
      <path d="M138.11,45.54c0-.25.21-.46.47-.46s.47.21.47.46c0,.26-.21.47-.47.47s-.47-.21-.47-.47ZM138.28,47.45h.59v5.92h-.59v-5.92Z"/>
      <path d="M146.29,50.44c0,.09-.01.19-.01.28h-5.37c.14,1.34,1.16,2.22,2.51,2.22.97,0,1.71-.45,2.05-1.08l.52.31c-.49.81-1.41,1.34-2.58,1.34-1.83,0-3.12-1.3-3.12-3.09s1.26-3.09,3.07-3.09,2.93,1.49,2.93,3.12ZM140.91,50.14h4.76c-.13-1.45-1.15-2.25-2.31-2.25-1.35,0-2.33.94-2.45,2.25Z"/>
      <path d="M148.77,48.03v3.85c0,1.04.56,1.07,1.77.96v.53c-1.55.24-2.37-.14-2.37-1.49v-3.85h-1.3v-.58h1.3v-1.48l.6-.18v1.66h1.77v.58h-1.77Z"/>
      <path d="M157.42,47.45v5.92h-.6v-1.34c-.5.89-1.41,1.47-2.55,1.47-1.68,0-3.07-1.34-3.07-3.09s1.39-3.09,3.07-3.09c1.14,0,2.05.58,2.55,1.47v-1.34h.6ZM156.81,50.41c0-1.41-1.09-2.52-2.5-2.52s-2.51,1.11-2.51,2.52,1.1,2.52,2.51,2.52,2.5-1.11,2.5-2.52ZM154.32,46.62l-1.09-1.5h.71l.95,1.5h-.57Z"/>
      <path d="M168.61,50.41c0,1.75-1.37,3.09-3.07,3.09-1.15,0-2.06-.59-2.55-1.5v1.37h-.59v-8.3h.59v3.74c.49-.91,1.4-1.51,2.55-1.51,1.69,0,3.07,1.34,3.07,3.09ZM168.02,50.41c0-1.41-1.1-2.52-2.51-2.52s-2.51,1.11-2.51,2.52,1.1,2.52,2.51,2.52,2.51-1.11,2.51-2.52Z"/>
      <path d="M175.64,50.44c0,.09-.01.19-.01.28h-5.37c.14,1.34,1.16,2.22,2.51,2.22.97,0,1.71-.45,2.05-1.08l.52.31c-.49.81-1.41,1.34-2.58,1.34-1.83,0-3.12-1.3-3.12-3.09s1.26-3.09,3.07-3.09,2.93,1.49,2.93,3.12ZM170.26,50.14h4.76c-.13-1.45-1.15-2.25-2.31-2.25-1.35,0-2.33.94-2.45,2.25Z"/>
      <path d="M182.03,49.69v3.69h-.6v-3.69c0-1.09-.63-1.8-1.74-1.8s-2.07.76-2.07,2.36v3.13h-.59v-5.92h.59v1.13c.45-.88,1.21-1.26,2.12-1.26,1.41,0,2.3.94,2.3,2.37Z"/>
      <path d="M189.29,50.44c0,.09-.01.19-.01.28h-5.37c.14,1.34,1.16,2.22,2.51,2.22.97,0,1.71-.45,2.05-1.08l.52.31c-.49.81-1.41,1.34-2.58,1.34-1.83,0-3.12-1.3-3.12-3.09s1.26-3.09,3.07-3.09,2.93,1.49,2.93,3.12ZM183.91,50.14h4.76c-.13-1.45-1.15-2.25-2.31-2.25-1.35,0-2.33.94-2.45,2.25Z"/>
      <path d="M194.73,53.38h-.6v-5.34h-2.6v5.34h-.6v-5.34h-1.02v-.58h1.02v-.32c0-1.46.82-2.18,2.37-2.18.39,0,.76.05,1.15.13v.55c-.39-.07-.76-.11-1.15-.11-1.21,0-1.77.46-1.77,1.61v.32h3.2v5.92Z"/>
      <path d="M197.81,48.03v3.85c0,1.04.56,1.07,1.77.96v.53c-1.55.24-2.37-.14-2.37-1.49v-3.85h-1.3v-.58h1.3v-1.48l.6-.18v1.66h1.77v.58h-1.77Z"/>
    </g>
  </g>
</svg>