<?xml version="1.0" encoding="UTF-8"?>
<svg id="Livello_2" data-name="Livello 2" xmlns="http://www.w3.org/2000/svg" viewBox="0 0 435.4 139.77">
  <defs>
    <style>
      .cls-1 {
        fill: #fff;
      }

      .cls-2 {
        fill: none;
        stroke: #fff;
        stroke-miterlimit: 10;
      }
    </style>
  </defs>
  <g id="Livello_1-2" data-name="Livello 1">
    <g>
      <g>
        <path class="cls-1" d="M142.21,83.32l-22.14,55.72h-8.21l-23.22-56.25c-2.14-5.18-3.93-8.93-9.29-8.93v-4.82l11.97.18h5.89l10.54-.18v4.82c-6.61,0-6.96,1.79-5,6.61l16.61,40.36,15.36-39.29c2.14-5.53,2.32-7.68-3.75-7.68v-4.82h5.71l6.96.18,6.07-.18v4.82c-4.11,0-4.82,2.5-7.5,9.46Z"/>
        <path class="cls-1" d="M194,139.75c-19.82.53-36.61-14.11-37.5-34.11-.89-22.68,16.43-37.68,34.82-38.22,19.64-.36,36.43,14.29,37.33,34.11.89,22.68-16.61,37.68-34.65,38.22ZM192.04,73.5c-16.07-.53-22.32,15.72-20.54,31.07,1.25,12.5,7.86,28.4,22.14,28.75,16.07.53,22.5-15.72,20.72-30.9-1.43-12.5-8.04-28.57-22.32-28.93Z"/>
      </g>
      <path class="cls-1" d="M39.93,90.53C-31.73,93.82,22.16,0,68.65,0h4.65v7.38c-38.57,4.93-74.94,76.31-4.92,61.82l-39.38,51.15h21.06c7.38,0,13.13.82,14.22-6.29h7.38l-2.46,25.71H0l39.93-49.23Z"/>
      <line class="cls-2" x1="245.81" y1="71.85" x2="245.81" y2="136.22"/>
      <g>
        <path class="cls-1" d="M260.45,101.53v-24.05h3.24v24.05h-3.24ZM262.19,101.53v-2.98h8.57v2.98h-8.57Z"/>
        <path class="cls-1" d="M276.52,77.49v24.05h-3.24v-24.05h3.24Z"/>
        <path class="cls-1" d="M279.9,101.52v-24.03h2.83l6.79,18.44-.53.43v-18.87h3.09v24.03h-2.87l-6.76-17.86.53-.43v18.29h-3.09Z"/>
        <path class="cls-1" d="M301.46,88.59h6.04v7.03c0,1.3-.23,2.41-.7,3.33-.47.92-1.14,1.62-2.03,2.11-.89.49-1.96.73-3.22.73s-2.38-.23-3.29-.69-1.59-1.12-2.06-1.98c-.47-.87-.71-1.92-.71-3.15v-12.55c0-1.31.23-2.43.7-3.34.47-.92,1.14-1.62,2.03-2.1s1.96-.73,3.23-.73,2.29.23,3.16.7,1.54,1.15,2,2.04.69,1.97.69,3.24v1.19h-3.45v-1.19c0-.94-.21-1.66-.62-2.17s-1.01-.76-1.78-.76c-.86,0-1.53.27-2,.81-.47.54-.71,1.31-.71,2.3v12.55c0,.87.24,1.55.73,2.03s1.18.73,2.08.73c.85,0,1.52-.27,2-.8.48-.53.72-1.29.72-2.26v-4.1h-2.8v-2.98Z"/>
        <path class="cls-1" d="M315.69,101.78c-1.82,0-3.21-.49-4.18-1.46-.97-.97-1.45-2.37-1.45-4.2v-18.64h3.24v18.77c0,.79.21,1.4.62,1.83s1,.64,1.77.64,1.38-.21,1.8-.64c.42-.42.62-1.03.62-1.83v-18.77h3.24v18.64c0,1.83-.49,3.23-1.46,4.2-.97.97-2.38,1.46-4.21,1.46Z"/>
        <path class="cls-1" d="M322.38,101.53l5.73-24.05h2.97l5.73,24.05h-3.48l-3.74-19.12-3.74,19.12h-3.48ZM326.05,96.29v-2.96h7.35v2.96h-7.35Z"/>
        <path class="cls-1" d="M343.64,88.59h6.04v7.03c0,1.3-.23,2.41-.7,3.33-.47.92-1.14,1.62-2.03,2.11-.89.49-1.96.73-3.22.73s-2.38-.23-3.29-.69-1.59-1.12-2.06-1.98c-.47-.87-.71-1.92-.71-3.15v-12.55c0-1.31.23-2.43.7-3.34.47-.92,1.14-1.62,2.03-2.1s1.96-.73,3.23-.73,2.29.23,3.16.7,1.54,1.15,2,2.04.69,1.97.69,3.24v1.19h-3.45v-1.19c0-.94-.21-1.66-.62-2.17s-1.01-.76-1.78-.76c-.86,0-1.53.27-2,.81-.47.54-.71,1.31-.71,2.3v12.55c0,.87.24,1.55.73,2.03s1.18.73,2.08.73c.85,0,1.52-.27,2-.8.48-.53.72-1.29.72-2.26v-4.1h-2.8v-2.98Z"/>
        <path class="cls-1" d="M358.38,88.59h6.04v7.03c0,1.3-.23,2.41-.7,3.33-.47.92-1.14,1.62-2.03,2.11-.89.49-1.96.73-3.22.73s-2.38-.23-3.29-.69-1.59-1.12-2.06-1.98c-.47-.87-.71-1.92-.71-3.15v-12.55c0-1.31.23-2.43.7-3.34.47-.92,1.14-1.62,2.03-2.1s1.96-.73,3.23-.73,2.29.23,3.16.7,1.54,1.15,2,2.04.69,1.97.69,3.24v1.19h-3.45v-1.19c0-.94-.21-1.66-.62-2.17s-1.01-.76-1.78-.76c-.86,0-1.53.27-2,.81-.47.54-.71,1.31-.71,2.3v12.55c0,.87.24,1.55.73,2.03s1.18.73,2.08.73c.85,0,1.52-.27,2-.8.48-.53.72-1.29.72-2.26v-4.1h-2.8v-2.98Z"/>
        <path class="cls-1" d="M370.7,77.49v24.05h-3.24v-24.05h3.24Z"/>
        <path class="cls-1" d="M381.11,101.53v-24.05h3.24v24.05h-3.24ZM383.17,101.53v-2.98h4.52c.59,0,1.05-.17,1.36-.51.32-.34.48-.83.48-1.46v-14.16c0-.63-.16-1.11-.48-1.46-.32-.34-.77-.51-1.36-.51h-4.52v-2.98h4.42c1.66,0,2.94.44,3.84,1.31s1.35,2.11,1.35,3.72v13.99c0,1.07-.2,1.98-.61,2.73s-1,1.32-1.78,1.71c-.77.39-1.71.59-2.82.59h-4.4Z"/>
        <path class="cls-1" d="M395.85,101.53v-24.05h3.24v24.05h-3.24ZM397.54,80.46v-2.98h8.96v2.98h-8.96ZM397.54,91.08v-2.98h8.11v2.98h-8.11ZM397.54,101.53v-2.98h8.96v2.98h-8.96Z"/>
        <path class="cls-1" d="M409.06,101.53v-24.05h3.24v24.05h-3.24ZM410.8,101.53v-2.98h8.57v2.98h-8.57Z"/>
      </g>
      <g>
        <path class="cls-1" d="M259.74,111.24v-2.98h10.93v2.98h-10.93ZM263.74,132.31v-22.08h2.94v22.08h-2.94Z"/>
        <path class="cls-1" d="M272.84,132.31v-24.05h2.94v24.05h-2.94ZM274.38,111.24v-2.98h8.13v2.98h-8.13ZM274.38,121.86v-2.98h7.36v2.98h-7.36ZM274.38,132.31v-2.98h8.13v2.98h-8.13Z"/>
        <path class="cls-1" d="M284.83,132.31v-24.06h2.94v24.06h-2.94ZM286.21,122.14v-2.98h4.15c.79,0,1.41-.23,1.85-.7s.66-1.12.66-1.96v-2.45c0-.89-.22-1.59-.66-2.08s-1.06-.74-1.85-.74h-4.15v-2.98h3.89c1.21,0,2.24.21,3.09.64s1.5,1.04,1.95,1.86.67,1.8.67,2.96v2.81c0,1.19-.22,2.21-.67,3.04s-1.1,1.48-1.95,1.92-1.88.66-3.09.66h-3.89ZM293.22,132.31l-3.14-10.92,2.77-.76,3.59,11.68h-3.22Z"/>
        <path class="cls-1" d="M308.04,108.27v2.68l-6.05,18.39h6.21v2.98h-9.35v-2.68l6.13-18.39h-5.85v-2.98h8.92Z"/>
        <path class="cls-1" d="M315.95,132.56c-1.18,0-2.18-.24-3.02-.71s-1.47-1.16-1.91-2.06-.66-1.99-.66-3.27v-12.47c0-1.29.22-2.38.66-3.28s1.08-1.58,1.91-2.05,1.84-.7,3.02-.7,2.2.23,3.03.7,1.47,1.15,1.9,2.05.66,1.99.66,3.28v12.47c0,1.28-.22,2.37-.66,3.27s-1.07,1.58-1.9,2.06-1.84.71-3.03.71ZM315.95,129.5c.84,0,1.49-.25,1.95-.76s.7-1.21.7-2.12v-12.67c0-.92-.23-1.62-.7-2.13s-1.11-.75-1.95-.75-1.5.25-1.96.75-.69,1.21-.69,2.13v12.67c0,.9.23,1.61.69,2.12s1.11.76,1.96.76Z"/>
        <path class="cls-1" d="M338.27,123.37l4.66-15.1h2.59v24.05h-2.69v-18.21l.26,1.06-3.87,13.21h-1.89l-3.86-12.88.36-1.39v18.21h-2.8v-24.05h2.69l4.55,15.1Z"/>
        <path class="cls-1" d="M351.53,108.27v24.05h-2.94v-24.05h2.94Z"/>
        <path class="cls-1" d="M354.59,132.31v-24.05h2.94v24.05h-2.94ZM356.17,132.31v-2.98h7.77v2.98h-7.77Z"/>
        <path class="cls-1" d="M366.27,132.31v-24.05h2.94v24.05h-2.94ZM367.85,132.31v-2.98h7.77v2.98h-7.77Z"/>
        <path class="cls-1" d="M377.94,132.31v-24.05h2.94v24.05h-2.94ZM379.48,111.24v-2.98h8.13v2.98h-8.13ZM379.48,121.86v-2.98h7.36v2.98h-7.36ZM379.48,132.31v-2.98h8.13v2.98h-8.13Z"/>
        <path class="cls-1" d="M389.93,132.3v-24.03h2.57l6.16,18.44-.48.43v-18.87h2.8v24.03h-2.6l-6.13-17.86.48-.43v18.29h-2.8Z"/>
        <path class="cls-1" d="M404.08,132.3v-24.03h2.57l6.16,18.44-.48.43v-18.87h2.8v24.03h-2.6l-6.13-17.86.48-.43v18.29h-2.8Z"/>
        <path class="cls-1" d="M421.15,108.27v24.05h-2.94v-24.05h2.94Z"/>
        <path class="cls-1" d="M429.8,132.56c-1.18,0-2.18-.24-3.02-.71s-1.47-1.16-1.91-2.06-.66-1.99-.66-3.27v-12.47c0-1.29.22-2.38.66-3.28s1.08-1.58,1.91-2.05,1.84-.7,3.02-.7,2.2.23,3.03.7,1.47,1.15,1.9,2.05.66,1.99.66,3.28v12.47c0,1.28-.22,2.37-.66,3.27s-1.07,1.58-1.9,2.06-1.84.71-3.03.71ZM429.8,129.5c.84,0,1.49-.25,1.95-.76s.7-1.21.7-2.12v-12.67c0-.92-.23-1.62-.7-2.13s-1.11-.75-1.95-.75-1.5.25-1.96.75-.69,1.21-.69,2.13v12.67c0,.9.23,1.61.69,2.12s1.11.76,1.96.76Z"/>
      </g>
    </g>
  </g>
</svg>