<?xml version="1.0" encoding="UTF-8"?>
<svg id="Livello_2" data-name="Livello 2" xmlns="http://www.w3.org/2000/svg" viewBox="0 0 259.01 76.2">
  <defs>
    <style>
      .cls-1 {
        fill: #065082;
      }
    </style>
  </defs>
  <g id="Livello_1-2" data-name="Livello 1">
    <g>
      <g>
        <path class="cls-1" d="M94.88,75.41c1.26-.02,2.06-.16,2.38-.44.33-.28.49-.83.49-1.67v-10.56c0-.87-.17-1.43-.52-1.67-.35-.25-1.13-.39-2.35-.44v-.47h8.78v.45c-1.08.05-1.84.18-2.26.4-.42.22-.64.81-.64,1.76v10.51c0,.93.21,1.52.64,1.76.42.24,1.18.37,2.26.4v.43h-8.78v-.45Z"/>
        <path class="cls-1" d="M136.94,60.61s-.04.02-.07.02-.05,0-.07.02c-.89.08-1.55.27-2,.56-.44.29-.67,1.11-.67,2.46v12.46h-.5l-13.01-13h-.06v9.25c0,1.23.19,2.04.58,2.43.38.39,1.12.6,2.2.63v.43h-6.95v-.45c1.12-.05,1.88-.24,2.28-.58.39-.34.59-1.15.59-2.43v-10.49c-.32-.28-.59-.51-.81-.69-.23-.17-.45-.31-.67-.4-.2-.08-.4-.13-.62-.15-.22-.02-.47-.04-.77-.04v-.47h5.06l11.33,11.41h.06v-7.92c0-1.34-.22-2.17-.67-2.47-.44-.3-1.17-.48-2.17-.55v-.47h6.95v.45Z"/>
        <path class="cls-1" d="M168.94,60.61v-.45h8.28c.43.02.93.04,1.48.07.55.03,1.11.09,1.69.17,1.14.19,2.19.57,3.15,1.13.96.56,1.43,1.45,1.43,2.67,0,.89-.25,1.55-.74,2-.49.45-1.03.79-1.6,1.01-.3.1-.58.17-.86.24-.28.06-.52.12-.74.17v.02c1.28.22,2.43.64,3.43,1.27,1.01.62,1.51,1.56,1.51,2.81,0,.19-.04.47-.13.83-.09.36-.28.74-.58,1.14-.41.55-1.11,1.06-2.1,1.51-.99.45-2.44.68-4.35.68h-9.88v-.45c1.24-.02,2.03-.16,2.35-.44.33-.28.49-.83.49-1.67v-10.56c0-.87-.17-1.43-.5-1.67-.34-.25-1.11-.39-2.34-.44v-.02ZM174.8,61.75v5.46l2.81-.02c.18.02.46.01.86-.01.39-.02.81-.09,1.24-.2.55-.16,1.07-.44,1.54-.83.47-.4.71-1,.71-1.8,0-1.08-.37-1.84-1.11-2.3-.74-.46-1.55-.75-2.44-.88-.28-.03-.55-.05-.83-.07-.28-.02-.54-.02-.8-.02h-.8c-.1.02-.19.02-.28.02h-.25c-.3,0-.48.07-.55.21-.07.14-.1.3-.1.47v-.02ZM174.8,74.01c0,.46.16.74.49.84.33.1.91.15,1.76.15.3,0,.63,0,1.01-.02.37-.02.76-.05,1.15-.12.85-.14,1.62-.45,2.32-.92.7-.47,1.05-1.25,1.05-2.35,0-.98-.31-1.7-.92-2.15s-1.3-.77-2.07-.96c-.02,0-.03,0-.04-.01-.01,0-.03-.01-.04-.01-.49-.11-1.05-.19-1.69-.25-.63-.06-1.64-.08-3.02-.08v5.88Z"/>
        <path class="cls-1" d="M208.69,60.61c-1.01.06-1.72.21-2.13.43-.41.22-.62.8-.62,1.73v11.2c0,.49.19.78.58.87.38.09,1.19.13,2.41.13,2.23,0,3.91-.15,5.04-.44,1.13-.29,2.12-1.21,2.97-2.76l.74-.02-1.42,4.13h-15.91v-.45c.95-.03,1.61-.16,2-.39.38-.23.58-.8.58-1.72v-10.56c0-.92-.2-1.48-.59-1.7-.39-.21-1.05-.35-1.98-.42v-.47h8.34v.45Z"/>
        <path class="cls-1" d="M250.75,60.61c-1.14.11-1.89.34-2.25.68s-.53,1.13-.53,2.38v6.17c0,.36-.01.79-.04,1.28-.03.49-.14.99-.34,1.49-.32.9-1,1.72-2.06,2.47-1.06.74-2.8,1.12-5.22,1.12-2.17,0-3.76-.33-4.78-1-1.02-.66-1.7-1.4-2.06-2.21-.26-.57-.4-1.11-.44-1.63-.04-.51-.06-.91-.06-1.2v-7.43c0-.87-.16-1.42-.49-1.66-.33-.24-1.05-.39-2.17-.45v-.47h8.37v.45c-1.16.08-1.9.25-2.22.51-.32.26-.47.81-.47,1.65v7.57c0,.29,0,.61.03.96.02.36.08.72.18,1.1.22.7.68,1.33,1.38,1.91.7.58,1.89.87,3.56.87,1.16,0,2.15-.17,2.97-.52.82-.35,1.44-.8,1.88-1.35.2-.27.36-.63.49-1.09.13-.46.19-1.17.19-2.14v-6.43c0-1.25-.2-2.05-.61-2.41s-1.13-.56-2.17-.6v-.47h6.86v.45Z"/>
      </g>
      <path class="cls-1" d="M5.29,41.4V12.72H0v-3.15c5.5-.97,7.43-4.26,9.15-9.58h5.09v8.61h13.08v4.11h-13.08v24.53c0,5.45-1.06,12.42,13.08,7.51l1.08,3.27c-21.1,9.47-23.11.45-23.11-6.63"/>
      <path class="cls-1" d="M72.74,38.03v18.37c0,4,0,4.89,4.73,4.89v2.8l-6.13-.08h-6.83s-3.93.01-3.98.01c-.04,0-.47-2.73-.47-2.73,4.3,0,3.64-1.11,3.64-4.67V15.85c0-3.13-.59-4.32-5.17-4.32v-2.92l5.97.08-5.4-.08,5.93.08,6.41-.08c14.91-.23,21.6,3.47,22.03,13.47.44,9.94-9.99,16.59-20.74,15.95M72.74,12.19v22.04c6.07.33,11.51-3.99,11.51-11.82,0-7.06-4.55-10.22-11.51-10.22"/>
      <path class="cls-1" d="M109.91,15.44v27.4c0,3.99,0,4.86,4.71,4.86v2.84l-6.08-.23h-6.87l-5.82.23v-2.84c4.66,0,5.08-1.06,5.08-4.64V15.85c0-3.13-.67-4.32-5.08-4.32v-2.92l5.82.08h6.87l6.39-.08v2.92c-3.78,0-5.01.75-5.01,3.91"/>
      <path class="cls-1" d="M48.01,15.44v27.4c0,3.99,0,4.86,4.71,4.86v2.84l-6.08-.23h-6.87l-5.82.23v-2.84c4.66,0,5.08-1.06,5.08-4.64V15.85c0-3.13-.67-4.32-5.08-4.32v-2.92l5.82.08h6.87l6.39-.08v2.92c-3.78,0-5.01.75-5.01,3.91"/>
      <path class="cls-1" d="M156.71,48.55c-2.51.86-9.46,2.75-15.67,2.85-14.32.18-22.88-9.45-22.88-21.31s10.31-19.86,18.55-21.16c8.06-1.32,15.88.09,20.18,2.15l.35,8.16h-3.29c-2.01-7.06-6.9-7.6-12.2-7.38-7.86.32-14.83,6.28-14.16,18.38.7,10.9,8.58,16.82,13.62,17.36,3.55.32,11.95,0,13.33-7.19h3.05l-.89,8.14Z"/>
      <path class="cls-1" d="M176.54,15.44v27.4c0,3.99,0,4.86,4.72,4.86v2.84l-6.09-.23h-6.84l-5.87.23v-2.84c4.62,0,5.07-1.06,5.07-4.64V15.85c0-3.13-.65-4.32-5.07-4.32v-2.92l5.87.08h6.84l6.39-.08v2.92c-3.76,0-5.01.75-5.01,3.91"/>
      <path class="cls-1" d="M192.25,41.4V12.72h-5.18v-3.15c5.4-.97,7.39-4.26,9.12-9.58h5.11v8.61h12.98v4.11h-12.98v24.53c0,5.45-1.08,12.42,12.98,7.51l1.13,3.27c-21.1,9.47-23.17.45-23.17-6.63"/>
      <path class="cls-1" d="M242.73,46.28c-15.88,11.55-24.13,2.2-23.82-5.14.36-7.47,8.55-13.75,23.58-13.39v-7.96c0-5.64,0-7.93-3.59-7.93-6.21.09-9.99,3.11-9.99,7.38,0,1.39-5.13,2.94-6.92,2.84-2.72-.09-1.77-3.81-.36-5.92,3.02-3.89,11.51-7.79,18.55-8,8.34-.25,11.29,3.28,11.29,9.52v23.17c0,3.89.55,8.27,5.9,4.78l1.65,2.38c-9.65,7.27-16.28,1.95-16.28-1.75M242.49,31.48c-9.8.13-14.54,3.07-14.54,8.55,0,4.19,4.74,9.64,14.54,2.03v-10.58Z"/>
    </g>
  </g>
</svg>