<?xml version="1.0" encoding="UTF-8"?>
<svg id="Livello_2" data-name="Livello 2" xmlns="http://www.w3.org/2000/svg" viewBox="0 0 325.69 145.02">
  <defs>
    <style>
      .cls-1 {
        fill: #fff;
      }
    </style>
  </defs>
  <g id="Livello_1-2" data-name="Livello 1">
    <g>
      <path class="cls-1" d="M6.17,65.21V31.71H0v-3.67c6.42-1.12,8.67-4.98,10.68-11.18h5.94v10.06h15.27v4.8h-15.27v28.64c0,6.37-1.23,14.5,15.27,8.77l1.27,3.82c-24.63,11.06-26.99.52-26.99-7.74"/>
      <path class="cls-1" d="M55.76,34.89v32c0,4.65,0,5.67,5.35,5.67v3.32l-6.99-.27h-8.13l-6.73.27v-3.32c5.46,0,5.94-1.23,5.94-5.42v-31.77c0-3.66-.75-5.05-5.94-5.05v-3.41l6.73.09h8.13l7.51-.09v3.41c-4.55,0-5.87.87-5.87,4.57"/>
      <path class="cls-1" d="M84.61,31.09v25.74c7.08.37,13.45-4.66,13.45-13.81,0-8.24-5.31-11.93-13.45-11.93M84.61,61.27v21.46c0,4.67,0,5.71,5.53,5.71v3.28l-7.17-.11h-7.97l-6.9.11v-3.28c5.53,0,5.96-1.28,5.96-5.44v-47.62c0-3.66-.68-5.05-6.03-5.05v-3.41l6.97.09-6.3-.09,6.92.09,7.49-.09c17.41-.27,25.22,4.05,25.72,15.73.52,11.61-11.67,19.37-24.22,18.62"/>
      <path class="cls-1" d="M128.03,34.89v32c0,4.65,0,5.67,5.49,5.67v3.32l-7.1-.27h-8.03l-6.8.27v-3.32c5.44,0,5.94-1.23,5.94-5.42v-31.77c0-3.66-.78-5.05-5.94-5.05v-3.41l6.8.09h8.03l7.46-.09v3.41c-4.41,0-5.85.87-5.85,4.57"/>
      <path class="cls-1" d="M182.67,73.56c-2.92,1-11.04,3.21-18.3,3.34-16.71.21-26.72-11.04-26.72-24.88s12.04-23.19,21.67-24.72c9.4-1.53,18.53.11,23.56,2.52l.41,9.52h-3.83c-2.35-8.24-8.06-8.88-14.25-8.61-9.19.37-17.32,7.33-16.53,21.46.82,12.73,10.02,19.64,15.91,20.28,4.14.37,13.95,0,15.55-8.4h3.57l-1.03,9.51Z"/>
      <path class="cls-1" d="M205.83,34.89v32c0,4.65,0,5.67,5.51,5.67v3.32l-7.12-.27h-7.99l-6.85.27v-3.32c5.39,0,5.92-1.23,5.92-5.42v-31.77c0-3.66-.77-5.05-5.92-5.05v-3.41l6.85.09h7.99l7.46-.09v3.41c-4.39,0-5.85.87-5.85,4.57"/>
      <path class="cls-1" d="M224.18,65.21V31.71h-6.05v-3.67c6.31-1.12,8.63-4.98,10.65-11.18h5.98v10.06h15.16v4.8h-15.16v28.64c0,6.37-1.27,14.5,15.16,8.77l1.32,3.82c-24.65,11.06-27.06.52-27.06-7.74"/>
      <path class="cls-1" d="M282.84,53.62c-11.45.16-16.98,3.58-16.98,9.99,0,4.89,5.53,11.25,16.98,2.37v-12.36ZM280.67,16.62l-15.23-16.62h11.99l8.42,15.12-5.17,1.5ZM283.13,70.9c-18.55,13.48-28.18,2.57-27.82-5.99.43-8.72,9.99-16.05,27.54-15.64v-9.29c0-6.58,0-9.26-4.19-9.26-7.26.11-11.66,3.64-11.66,8.61,0,1.62-5.99,3.43-8.08,3.32-3.17-.11-2.07-4.44-.43-6.9,3.53-4.55,13.45-9.1,21.67-9.35,9.74-.29,13.18,3.83,13.18,11.13v27.06c0,4.55.64,9.65,6.88,5.58l1.93,2.78c-11.27,8.49-19.01,2.28-19.01-2.05"/>
      <g>
        <path class="cls-1" d="M199.73,109.35h3.37c2.07,0,3.1.72,3.1,2.17,0,.99-.36,1.76-1.09,2.32-.72.55-1.74.83-3.04.83h-4.49l-10.95,27.01c-.91,2.23-2.18,3.34-3.81,3.34-.72,0-1.32-.22-1.81-.66s-.73-.98-.73-1.63c0-.47.21-1.24.63-2.32l10.47-25.74h-1.66c-2.07,0-3.1-.71-3.1-2.12,0-1.01.36-1.79,1.09-2.35.72-.56,1.74-.84,3.04-.84h2.78l3.1-7.64c1.04-2.54,2.29-4.34,3.74-5.4,1.46-1.06,3.4-1.6,5.84-1.6h2.78c2.08,0,3.12.72,3.12,2.15,0,1.02-.37,1.82-1.1,2.39-.73.57-1.75.85-3.05.85h-.73c-1.37,0-2.44.28-3.23.83s-1.45,1.49-1.99,2.8l-2.29,5.61Z"/>
        <path class="cls-1" d="M208.9,120.87c0,1.22.92,1.83,2.76,1.83h7.25c2.05,0,3.07.72,3.07,2.17,0,.99-.36,1.77-1.09,2.32-.72.55-1.74.83-3.04.83h-6.9c-2.57,0-4.53-.63-5.87-1.9-1.34-1.27-2.01-3.12-2.01-5.56,0-3.14,1.06-5.85,3.18-8.12,2.12-2.28,4.65-3.42,7.58-3.42,2.13,0,3.84.56,5.14,1.67,1.29,1.11,1.94,2.58,1.94,4.4,0,2.2-.89,3.82-2.68,4.88-.99.6-2.47.9-4.44.9h-4.88ZM210.08,116.43h2.68c1.74,0,2.59-.38,2.54-1.15-.05-.86-.61-1.29-1.68-1.29-1.5,0-2.68.81-3.54,2.44Z"/>
        <path class="cls-1" d="M231.03,116.01l-.46,1.12c-.72,1.61-1.73,2.42-3.05,2.42-.67,0-1.27-.23-1.79-.7-.53-.46-.79-1-.79-1.6,0-.57.24-1.32.71-2.27l3.24-6.59c.8-1.58,1.79-2.37,2.98-2.37.63,0,1.18.21,1.63.62.45.41.68.91.68,1.48,0,.15-.05.46-.15.95-.07.36-.1.68-.1.95,0,1.02.38,2.07,1.15,3.15l1.39,1.93c1.41,1.97,2.12,3.87,2.12,5.71,0,2.05-.76,3.76-2.29,5.14-1.53,1.37-3.43,2.06-5.71,2.06h-5.1c-2.07,0-3.1-.72-3.1-2.15,0-.99.37-1.77,1.1-2.33.73-.56,1.74-.84,3.03-.84h2.83c2.26,0,3.39-.82,3.39-2.46,0-.6-.21-1.31-.63-2.12l-1.07-2.1Z"/>
        <path class="cls-1" d="M252.55,109.35h.76c2.07,0,3.1.72,3.1,2.17,0,.99-.37,1.76-1.1,2.32s-1.74.83-3.03.83h-1.78l-3.27,8.03h2.73c2.07,0,3.1.72,3.1,2.17,0,.99-.36,1.77-1.09,2.32-.72.55-1.74.83-3.04.83h-4.37c-1.24,0-2.22-.28-2.94-.85s-1.09-1.34-1.09-2.32c0-.6.15-1.27.44-2l.46-1.07,2.88-7.1h-.37c-1.82,0-2.73-.71-2.73-2.12,0-1.01.36-1.79,1.09-2.35.72-.56,1.74-.84,3.04-.84h1.12l1.29-3.2.27-.66c.76-1.8,1.97-2.71,3.61-2.71.67,0,1.24.22,1.72.67.48.45.72.99.72,1.62s-.21,1.4-.63,2.34l-.9,1.93Z"/>
        <path class="cls-1" d="M262.16,122.7h2.76c2.05,0,3.07.72,3.07,2.17,0,.99-.36,1.77-1.09,2.32-.72.55-1.74.83-3.04.83h-3.88c-1.43,0-2.56-.29-3.38-.88-.82-.59-1.23-1.38-1.23-2.39,0-.54.17-1.22.51-2.05l4.03-9.9.27-.68c.75-1.84,1.95-2.76,3.61-2.76.68,0,1.27.23,1.77.68.5.45.74,1,.74,1.63,0,.52-.22,1.32-.66,2.39l-3.49,8.64ZM265.38,101.57c.94,0,1.74.33,2.4.99.66.66.99,1.46.99,2.4s-.33,1.74-.99,2.4c-.66.66-1.46.99-2.4.99s-1.75-.33-2.4-.99c-.66-.66-.99-1.46-.99-2.4s.33-1.75.99-2.4,1.46-.99,2.4-.99Z"/>
        <path class="cls-1" d="M275.07,119.43l5.66-7.71.44-.66c.94-1.37,2-2.05,3.17-2.05.76,0,1.39.24,1.88.72s.73,1.09.73,1.84c0,.81-.49,1.85-1.46,3.12l-9.03,11.69c-1.01,1.32-2.2,1.98-3.56,1.98-1.16,0-2.07-.4-2.73-1.21-.67-.8-1-1.91-1-3.31,0-.29,0-.53.02-.71l.88-9.73c.11-1.32.47-2.32,1.06-3.01.59-.69,1.39-1.04,2.4-1.04,1.55,0,2.32.78,2.32,2.34,0,.23-.03.62-.1,1.17l-.68,6.56Z"/>
        <path class="cls-1" d="M302.35,122.7h2.68c2.05,0,3.07.72,3.07,2.15,0,.99-.37,1.77-1.1,2.33-.73.56-1.74.84-3.02.84h-3.12c-1.4,0-2.35-.55-2.85-1.63-1.22,1.09-2.4,1.63-3.54,1.63h-2.78c-1.79,0-3.23-.64-4.33-1.92-1.1-1.28-1.65-2.95-1.65-5.01,0-3.12,1.08-5.92,3.23-8.38,2.16-2.46,4.59-3.7,7.31-3.7,2.08,0,3.6.72,4.56,2.17.81-1.22,1.88-1.83,3.2-1.83.72,0,1.31.23,1.79.68.48.45.72,1.02.72,1.68,0,.45-.13,1-.39,1.63l-.27.66-3.51,8.69ZM293.49,122.82h.61c1.33,0,2.22-.54,2.66-1.63l1.71-4.22c.23-.55.34-1.02.34-1.39,0-.44-.22-.82-.65-1.15-.43-.32-.95-.49-1.55-.49-1.19,0-2.34.69-3.46,2.07-1.12,1.38-1.68,2.81-1.68,4.29,0,1.67.67,2.51,2.02,2.51Z"/>
        <path class="cls-1" d="M315.57,122.7h2.56c2.06,0,3.1.72,3.1,2.17,0,.99-.36,1.77-1.08,2.32-.72.55-1.74.83-3.04.83h-4.39c-1.2,0-2.16-.28-2.85-.85s-1.05-1.33-1.05-2.29c0-.5.24-1.34.71-2.51l9.86-24.25.27-.66c.75-1.82,1.94-2.73,3.59-2.73.68,0,1.27.23,1.75.68s.72,1,.72,1.63c0,.49-.12,1.04-.37,1.66l-.27.66-9.49,23.35Z"/>
      </g>
    </g>
  </g>
</svg>